PathFileType	4	(X/Y/Z)	C:/Users/opensim2020/Desktop/walking_exp_matlab/subject06_walking17_straight_02.trc																																																																																																																																					
DataRate	CameraRate	NumFrames	NumMarkers	Units	OrigDataRate	OrigDataStartFrame	OrigNumFrames																																																																																																																																	
100	100	4	45	mm	100	2198	334																																																																																																																																	
Frame#	Time	LFHD			RFHD			LBHD			RBHD			C7			T10			CLAV			STRN			RBAK			LSHO			LUPA			LELB			LFRM			LWRA			LWRB			LFIN			RSHO			RUPA			RELB			RFRM			RWRA			RWRB			RFIN			LASI			RASI			LPSI			RPSI			LTHI			LKNE			LTIB			LANK			LHEE			LTOE			RTHI			RKNE			RTIB			RANK			RHEE			RTOE			*39			*40			*41			*42			*43			*44		
		X1	Y1	Z1	X2	Y2	Z2	X3	Y3	Z3	X4	Y4	Z4	X5	Y5	Z5	X6	Y6	Z6	X7	Y7	Z7	X8	Y8	Z8	X9	Y9	Z9	X10	Y10	Z10	X11	Y11	Z11	X12	Y12	Z12	X13	Y13	Z13	X14	Y14	Z14	X15	Y15	Z15	X16	Y16	Z16	X17	Y17	Z17	X18	Y18	Z18	X19	Y19	Z19	X20	Y20	Z20	X21	Y21	Z21	X22	Y22	Z22	X23	Y23	Z23	X24	Y24	Z24	X25	Y25	Z25	X26	Y26	Z26	X27	Y27	Z27	X28	Y28	Z28	X29	Y29	Z29	X30	Y30	Z30	X31	Y31	Z31	X32	Y32	Z32	X33	Y33	Z33	X34	Y34	Z34	X35	Y35	Z35	X36	Y36	Z36	X37	Y37	Z37	X38	Y38	Z38	X39	Y39	Z39	X40	Y40	Z40	X41	Y41	Z41	X42	Y42	Z42	X43	Y43	Z43	X44	Y44	Z44	X45	Y45	Z45
																																																																																																																																								
42	0.41	-970.98224	1658.63757	-1523.81152	-979.50244	1639.71008	-1393.63354	-1101.38086	1599.08826	-1537.11084	-1108.52734	1585.81421	-1409.2063	-1101.36841	1442.16211	-1485.44946	-1134.78735	1112.81104	-1474.90308	-990.89319	1365.2467	-1481.80957	-951.81281	1188.06116	-1490.91541	-1175.2478	1270.06982	-1407.87976	-1040.47668	1397.20117	-1645.44128	-1012.94952	1196.61621	-1719.21606	-989.98639	1085.97034	-1732.3501	-896.69049	966.73718	-1735.35413	-792.15112	907.90424	-1674.10242	-835.28662	866.28448	-1712.17603	-757.63666	821.75568	-1698.80249	-1038.48767	1394.72559	-1320.77869	-1091.05798	1196.51709	-1239.17749	-1091.30774	1074.57471	-1229.38879	-1087.26453	954.05859	-1212.08301	-1036.41687	810.13312	-1239.64319	-1093.0481	816.00049	-1203.84497	-1062.35718	737.12146	-1199.94507	-965.28558	945.35278	-1588.11243	-952.59137	958.29718	-1365.90173	-1120.21582	981.25146	-1549.50964	-1104.96765	986.47186	-1380.90649	-1088.53149	642.53516	-1630.34937	-1130.83679	483.15872	-1608.16199	-1260.02466	258.06348	-1601.0614	-1326.70483	98.34631	-1553.8573	-1370.11877	95.56709	-1509.64966	-1194.47974	39.26415	-1548.65808	-963.64532	632.04248	-1296.12195	-929.57062	514.70184	-1327.3905	-907.54968	252.26276	-1324.83594	-862.59229	70.67822	-1366.02844	-890.55438	44.52923	-1416.52039	-703.53772	49.75949	-1362.57739	-1076.70251	1689.29749	-1470.07263	NaN	NaN	NaN	NaN	NaN	NaN	NaN	NaN	NaN	NaN	NaN	NaN	NaN	NaN	NaN
43	0.42	-963.75763	1659.44299	-1521.96179	-972.20514	1640.31543	-1391.88208	-1094.05884	1599.48901	-1535.26978	-1100.93213	1585.9823	-1407.29114	-1093.3551	1442.69116	-1483.85571	-1126.21167	1113.25684	-1473.91638	-982.83014	1365.87415	-1480.31824	-943.36603	1188.76611	-1489.52954	-1166.99829	1270.44836	-1406.33423	-1032.48975	1397.60376	-1643.99304	-1006.01154	1196.5791	-1717.40271	-983.25104	1085.88831	-1730.42981	-890.56708	966.31274	-1733.90149	-786.20502	906.75397	-1672.75964	-829.85889	865.90857	-1710.94067	-751.95477	820.80756	-1697.66699	-1030.34387	1395.02283	-1319.26453	-1082.27795	1196.55798	-1237.74915	-1082.59631	1074.67175	-1228.01758	-1078.88513	954.04944	-1210.86938	-1028.60754	810.08832	-1238.82092	-1085.125	815.89203	-1202.6803	-1054.93469	737.07819	-1199.00671	-957.06427	945.48468	-1586.77466	-943.89771	959.25964	-1364.86938	-1111.60339	981.93433	-1548.67688	-1096.62903	987.98169	-1380.07129	-1081.61218	642.87805	-1629.21448	-1124.86377	483.72025	-1607.09253	-1256.88806	260.31396	-1600.63062	-1325.25195	101.10224	-1554.03027	-1368.63892	98.91007	-1509.74866	-1193.98547	39.02513	-1548.43811	-955.29443	633.75098	-1294.67175	-922.07776	515.91711	-1325.36035	-902.72174	252.63579	-1323.02368	-860.57214	70.80762	-1365.36902	-889.43878	45.14345	-1415.56885	-702.19788	46.78479	-1362.10779	-1069.59155	1689.70313	-1468.0675	NaN	NaN	NaN	NaN	NaN	NaN	NaN	NaN	NaN	NaN	NaN	NaN	NaN	NaN	NaN
44	0.43	-956.51593	1660.41272	-1520.01917	-964.86078	1641.04565	-1389.90381	-1086.57117	1599.97681	-1533.32275	-1093.39063	1586.24475	-1405.32568	-1085.32129	1443.2688	-1482.31909	-1117.66162	1113.97668	-1472.89709	-974.56567	1366.74719	-1478.87598	-934.64874	1189.63611	-1488.14587	-1158.67468	1271.01477	-1404.98499	-1024.36658	1398.28796	-1642.5531	-998.98389	1196.85254	-1715.5354	-976.43475	1086.11353	-1728.39624	-884.47943	965.97278	-1732.1687	-779.89465	906.10327	-1671.87061	-824.36188	865.11029	-1709.34912	-746.61322	819.69122	-1696.62964	-1022.23615	1395.56396	-1317.73755	-1073.62134	1196.94067	-1236.25745	-1073.70972	1075.01306	-1226.7594	-1070.31335	954.3717	-1209.6283	-1020.79315	810.11151	-1237.89417	-1077.07678	816.49078	-1201.26343	-1047.23486	737.13306	-1197.95496	-948.68158	945.85718	-1585.13391	-935.26422	960.54413	-1363.75549	-1103.05017	982.86981	-1547.7179	-1088.38879	989.65656	-1379.23145	-1074.50586	643.27521	-1627.97632	-1118.60315	484.51346	-1605.84265	-1253.7063	262.92242	-1600.35693	-1323.60645	104.06857	-1554.12659	-1366.79065	102.35896	-1509.89636	-1193.63855	39.05618	-1548.37012	-947.00916	635.44812	-1293.11182	-914.38641	517.20697	-1323.55212	-898.1167	252.87863	-1321.59668	-858.9845	70.87877	-1365.22375	-888.46545	45.95279	-1415.0929	-701.2702	44.96104	-1361.37	-1062.45361	1690.18396	-1465.99548	NaN	NaN	NaN	NaN	NaN	NaN	NaN	NaN	NaN	NaN	NaN	NaN	NaN	NaN	NaN
45	0.44	-949.32611	1661.60132	-1517.92688	-957.53479	1641.87634	-1387.91479	-1079.06335	1600.57544	-1531.34583	-1085.80627	1586.53333	-1403.39319	-1077.20154	1443.9043	-1480.79443	-1109.1405	1114.85852	-1471.8186	-966.17926	1367.68103	-1477.33289	-925.93768	1190.67761	-1486.60229	-1150.29663	1271.69666	-1403.78674	-1016.16986	1399.20813	-1641.09216	-991.76831	1197.42371	-1713.64673	-969.51532	1086.64099	-1726.34326	-878.48108	965.78168	-1730.29578	-774.33484	904.8407	-1670.48877	-818.69446	864.08319	-1707.54236	-741.59827	818.45709	-1695.71655	-1014.19379	1396.37561	-1316.27527	-1064.87061	1197.6449	-1234.84827	-1064.76477	1075.6377	-1225.49316	-1061.58264	955.02185	-1208.35303	-1012.58893	810.64685	-1236.91577	-1068.67444	816.98431	-1200.00391	-1039.1344	737.61761	-1196.92834	-940.54285	946.49237	-1583.3241	-927.40625	961.99799	-1362.9325	-1094.6001	984.04004	-1546.66052	-1080.198	991.33466	-1378.24585	-1067.13892	643.72089	-1626.63257	-1111.94165	485.30768	-1604.23901	-1250.09009	265.40659	-1599.40149	-1321.76758	107.25683	-1554.16516	-1364.93005	106.29946	-1509.90247	-1193.25391	39.11577	-1548.28845	-938.91406	637.09167	-1291.62329	-906.9234	518.45758	-1322.08777	-893.52936	253.2722	-1320.44482	-857.63904	71.1399	-1365.0542	-887.75067	46.2781	-1414.55212	-700.13196	43.73008	-1361.08667	-1055.37427	1690.7821	-1463.85754	NaN	NaN	NaN	NaN	NaN	NaN	NaN	NaN	NaN	NaN	NaN	NaN	NaN	NaN	NaN
